<?xml version="1.0" encoding="UTF-8" standalone="no"?>
<!-- Created with Inkscape (http://www.inkscape.org/) -->

<svg
   width="800"
   height="800"
   viewBox="0 0 211.66667 211.66667"
   version="1.1"
   id="svg1"
   xml:space="preserve"
   inkscape:export-filename="ToGOList.svg"
   inkscape:export-xdpi="96"
   inkscape:export-ydpi="96"
   xmlns:inkscape="http://www.inkscape.org/namespaces/inkscape"
   xmlns:sodipodi="http://sodipodi.sourceforge.net/DTD/sodipodi-0.dtd"
   xmlns:xlink="http://www.w3.org/1999/xlink"
   xmlns="http://www.w3.org/2000/svg"
   xmlns:svg="http://www.w3.org/2000/svg"><sodipodi:namedview
     id="namedview1"
     pagecolor="#ffffff"
     bordercolor="#000000"
     borderopacity="0.25"
     inkscape:showpageshadow="2"
     inkscape:pageopacity="0.0"
     inkscape:pagecheckerboard="0"
     inkscape:deskcolor="#d1d1d1"
     inkscape:document-units="mm"
     inkscape:zoom="0.25"
     inkscape:cx="-64"
     inkscape:cy="410"
     inkscape:window-width="1920"
     inkscape:window-height="991"
     inkscape:window-x="-9"
     inkscape:window-y="-9"
     inkscape:window-maximized="1"
     inkscape:current-layer="g4"><inkscape:page
       x="0"
       y="0"
       width="211.66667"
       height="211.66667"
       id="page2"
       margin="0"
       bleed="0" /></sodipodi:namedview><defs
     id="defs1"><linearGradient
       id="linearGradient13"
       inkscape:collect="always"><stop
         style="stop-color:#ffffff;stop-opacity:1;"
         offset="0.4238489"
         id="stop13" /><stop
         style="stop-color:#0071e5;stop-opacity:1;"
         offset="0.76505315"
         id="stop14" /></linearGradient><radialGradient
       inkscape:collect="always"
       xlink:href="#linearGradient13"
       id="radialGradient14"
       cx="-494.81342"
       cy="572.96106"
       fx="-494.81342"
       fy="572.96106"
       r="211.38281"
       gradientTransform="matrix(1.4675241,0.00738601,-0.00293935,0.58401764,233.02133,241.99638)"
       gradientUnits="userSpaceOnUse" /></defs><g
     inkscape:label="Layer 1"
     inkscape:groupmode="layer"
     id="layer1"><g
       fill="#ffffff"
       id="g4"
       transform="matrix(0.26458333,0,0,0.26458333,238.26047,24.18468)"
       style="fill:#478cbf;fill-opacity:1"><path
         d="m -581.59834,-67.315963 c -36.41893,8.096276 -72.44496,19.368329 -106.22116,36.369063 0.77243,29.8246211 2.70067,58.401229 6.60935,87.428382 -13.11711,8.403821 -26.90273,15.61632 -39.15443,25.454157 -12.44837,9.576769 -25.16265,18.738921 -36.4345,29.939251 -22.51865,-14.894443 -46.35237,-28.8914 -70.90583,-41.246805 -26.46666,28.483581 -51.21369,59.226305 -71.42934,93.628315 15.88736,24.93857 32.9288,50.00442 48.71021,69.55174 v 169.91527 15.95204 h -0.1896 v 53.20035 4.53375 c 0.0616,10.30607 0.1738,20.43389 0.1896,23.75777 8.7e-4,0.25788 0.002,0.47481 0.002,0.64768 0,122.92462 155.93483,182.00818 349.67324,182.68764 h 0.23658 0.23827 c 193.73841,-0.67946 349.62122,-59.76302 349.62122,-182.68764 0,-0.17417 4.3e-4,-0.39106 0.002,-0.64768 0.006,-1.01656 0.0194,-2.65653 0.0385,-4.73678 v -23.53796 -44.80904 l 0.0118,-0.003 v -194.2724 c 18.22706,-22.94589 35.48664,-48.25685 48.71021,-69.55174 -20.20849,-34.40201 -44.9694,-65.144734 -71.43606,-93.628315 -24.54631,12.355405 -48.38885,26.352362 -70.90751,41.246805 -11.26827,-11.20033 -23.95985,-20.362482 -36.42611,-29.939251 -12.24813,-9.837837 -26.0506,-17.050336 -39.14267,-25.454157 3.89793,-29.027153 5.82495,-57.6037609 6.60097,-87.428382 -33.77978,-17.000734 -69.80115,-28.272787 -106.23795,-36.369063 -14.54754,24.449753 -27.85146,50.926696 -39.43799,76.8104532 -13.73934,-2.2958423 -27.54264,-3.1460494 -41.36424,-3.3105505 V 6.162178 c -0.0966,0 -0.18622,0.021762 -0.26847,0.021762 -0.0858,0 -0.17594,-0.021762 -0.26176,-0.021762 V 6.18394 c -13.84664,0.1645011 -27.63811,1.0147082 -41.38104,3.3105505 -11.57939,-25.8837575 -24.8757,-52.3607005 -39.4447,-76.8104535 z"
         id="path4"
         style="fill:#0071e5;fill-opacity:1;stroke-width:0.859098" /><path
         id="rect8"
         style="fill:#ffffff;fill-opacity:1;stroke-width:1.43773"
         d="m -706.48761,207.9283 c -13.14231,0 -23.72265,10.58034 -23.72265,23.72265 v 33.88477 c 0,13.14231 10.58034,23.72266 23.72265,23.72266 h 37.95118 c 13.14231,0 23.72265,-10.58035 23.72265,-23.72266 v -33.88477 c 0,-13.14231 -10.58034,-23.72265 -23.72265,-23.72265 z m 80.58204,35 c -1.83091,0 -3.30469,1.47378 -3.30469,3.30468 v 4.72071 c 0,1.8309 1.47378,3.30469 3.30469,3.30469 h 351.78711 c 1.83091,0 3.30469,-1.47379 3.30469,-3.30469 v -4.72071 c 0,-1.8309 -1.47378,-3.30468 -3.30469,-3.30468 z" /><path
         id="path9"
         style="fill:#ffffff;fill-opacity:1;stroke-width:1.43773"
         d="m -706.48761,307.9283 c -13.14231,0 -23.72265,10.58034 -23.72265,23.72265 v 33.88477 c 0,13.14231 10.58034,23.72266 23.72265,23.72266 h 37.95118 c 13.14231,0 23.72265,-10.58035 23.72265,-23.72266 v -33.88477 c 0,-13.14231 -10.58034,-23.72265 -23.72265,-23.72265 z m 80.58204,35 c -1.83091,0 -3.30469,1.47378 -3.30469,3.30468 v 4.72071 c 0,1.8309 1.47378,3.30469 3.30469,3.30469 h 351.78711 c 1.83091,0 3.30469,-1.47379 3.30469,-3.30469 v -4.72071 c 0,-1.8309 -1.47378,-3.30468 -3.30469,-3.30468 z" /><path
         id="path10"
         style="fill:#ffffff;fill-opacity:1;stroke-width:1.43773"
         d="m -706.48761,407.9283 c -13.14231,0 -23.72265,10.58034 -23.72265,23.72265 v 33.88477 c 0,13.14231 10.58034,23.72266 23.72265,23.72266 h 37.95118 c 13.14231,0 23.72265,-10.58035 23.72265,-23.72266 v -33.88477 c 0,-13.14231 -10.58034,-23.72265 -23.72265,-23.72265 z m 80.58204,35 c -1.83091,0 -3.30469,1.47378 -3.30469,3.30468 v 4.72071 c 0,1.8309 1.47378,3.30469 3.30469,3.30469 h 351.78711 c 1.83091,0 3.30469,-1.47379 3.30469,-3.30469 v -4.72071 c 0,-1.8309 -1.47378,-3.30468 -3.30469,-3.30468 z" /><circle
         id="path11"
         style="fill:#ffffff;stroke:#000000"
         cx="-1235.6807"
         cy="467.2077"
         r="0.18837188" /><path
         style="fill:#00ff00;fill-opacity:1;stroke-width:0.502866"
         d="m -710.27048,228.8673 11.12114,45.02678 64.58664,-70.06751 -7.02104,-4.39759 -51.99823,56.41082 -7.33362,-29.69186 z"
         id="path12"
         inkscape:transform-center-x="41.643122"
         inkscape:transform-center-y="72.338587" /><path
         style="fill:#00ff00;fill-opacity:1;stroke-width:0.502866"
         d="m -713.09891,429.68563 11.12114,45.02678 64.58664,-70.06751 -7.02104,-4.39759 -51.99823,56.41082 -7.33362,-29.69186 z"
         id="path13"
         inkscape:transform-center-x="41.643122"
         inkscape:transform-center-y="72.338587" /><text
         xml:space="preserve"
         style="writing-mode:lr-tb;direction:ltr;fill:url(#radialGradient14);fill-opacity:1"
         x="-706.19623"
         y="607.8595"
         id="text13"><tspan
           sodipodi:role="line"
           id="tspan13"
           x="-706.19623"
           y="607.8595"
           style="font-style:normal;font-variant:normal;font-weight:normal;font-stretch:normal;font-size:96px;font-family:Sans;-inkscape-font-specification:'Sans, Normal';font-variant-ligatures:normal;font-variant-caps:normal;font-variant-numeric:normal;font-variant-east-asian:normal;fill:url(#radialGradient14);fill-opacity:1">ToGOList</tspan></text></g></g></svg>
